<?xml version="1.0" encoding="utf-8"?>
<!-- Generator: Adobe Illustrator 24.0.1, SVG Export Plug-In . SVG Version: 6.00 Build 0)  -->
<svg version="1.1" id="Layer_1" xmlns="http://www.w3.org/2000/svg" xmlns:xlink="http://www.w3.org/1999/xlink" x="0px" y="0px"
	 viewBox="0 0 120 38" style="enable-background:new 0 0 120 38;" xml:space="preserve">
<style type="text/css">
	.st0{fill:#A16C04;}
	.st1{fill:#5C3E02;}
</style>
<path class="st0" d="M70.8,34.5L70.8,34.5L82.4,27V11L70.7,3.4l-0.1-0.1L70.1,3l0,0c-2.9-1.8-6.3-2.8-9.9-2.8
	c-10.4,0-18.9,8.4-18.9,18.9s8.4,18.8,18.8,18.8C64.1,37.9,67.7,36.7,70.8,34.5z"/>
<path class="st1" d="M64.9,24.4L64.9,24.4l3.3-2.1h51.7v-6.5H68.2l-3.3-2.2l0,0l-0.2-0.1l0,0c-1-0.6-2.2-1-3.4-1
	c-3.6,0-6.5,2.9-6.5,6.5s2.9,6.5,6.5,6.5C62.6,25.6,63.9,25.1,64.9,24.4z"/>
</svg>
