<?xml version="1.0" encoding="utf-8"?>
<!-- Generator: Adobe Illustrator 24.0.1, SVG Export Plug-In . SVG Version: 6.00 Build 0)  -->
<svg version="1.1" id="Layer_1" xmlns="http://www.w3.org/2000/svg" xmlns:xlink="http://www.w3.org/1999/xlink" x="0px" y="0px"
	 viewBox="0 0 74 84" style="enable-background:new 0 0 74 84;" xml:space="preserve">
<style type="text/css">
	.st0{fill:#6D6E70;}
	.st1{fill:#5C5D5F;}
	.st2{fill:#70352E;}
	.st3{fill:#4D241F;}
</style>
<path class="st0" d="M0.6,25.2V1.7c0-0.6,0.5-1.1,1.1-1.1h70.4c0.6,0,1.1,0.5,1.1,1.1v23.5c0,0.6-0.5,1.1-1.1,1.1H1.7
	C1.1,26.3,0.6,25.8,0.6,25.2z"/>
<path class="st0" d="M0.6,81.9V58.2c0-0.6,0.5-1,1-1h70.6c0.6,0,1,0.5,1,1v23.7c0,0.6-0.5,1-1,1H1.6C1.1,82.9,0.6,82.5,0.6,81.9z"/>
<rect x="61.9" y="57.4" class="st1" width="5.5" height="25.6"/>
<rect x="49.3" y="57.4" class="st1" width="5.5" height="25.6"/>
<rect x="36.8" y="57.4" class="st1" width="5.5" height="25.6"/>
<rect x="24.2" y="57.4" class="st1" width="5.5" height="25.6"/>
<rect x="11.6" y="57.4" class="st1" width="5.5" height="25.6"/>
<rect x="53.6" y="0.6" class="st1" width="5.5" height="25.6"/>
<rect x="65.7" y="0.7" class="st1" width="5.5" height="25.6"/>
<rect x="41.1" y="0.6" class="st1" width="5.5" height="25.6"/>
<rect x="28.5" y="0.6" class="st1" width="5.5" height="25.6"/>
<rect x="16" y="0.6" class="st1" width="5.5" height="25.6"/>
<rect x="3.4" y="0.6" class="st1" width="5.5" height="25.6"/>
<path class="st2" d="M6.1,67.9v-52c0-1.2,1-2.1,2.1-2.1h56c2,0,3.5,1.6,3.5,3.5v49.2c0,2-1.6,3.5-3.5,3.5H8.3
	C7.1,70.1,6.1,69.1,6.1,67.9z"/>
<g>
	<path class="st3" d="M60.7,17.9c1.5,0,2.5,0.9,2.5,2.5v3.3h-1.3v-3.2c0-0.9-0.5-1.4-1.2-1.4c-0.8,0-1.2,0.5-1.2,1.4v3.3h-1.3v-3.2
		C58.2,18.8,59.2,17.9,60.7,17.9z"/>
	<path class="st3" d="M57.2,18v1.3h-1.3V18H57.2z"/>
	<path class="st3" d="M52.7,17.9c0.9,0,1.7,0.3,2.4,0.9l-0.7,0.9c-0.5-0.4-1.1-0.7-1.7-0.7c-0.5,0-0.8,0.2-0.8,0.5l0,0
		c0,0.3,0.2,0.5,1.2,0.7c1.2,0.3,1.9,0.6,1.9,1.7l0,0c0,1-0.8,1.7-2,1.7c-0.8,0-1.5-0.3-2.1-0.7l0.7-0.9c0.5,0.4,1,0.6,1.5,0.6
		s0.7-0.2,0.7-0.5l0,0c0-0.4-0.2-0.5-1.2-0.8c-1.2-0.3-1.8-0.7-1.8-1.7l0,0C50.6,18.6,51.5,17.9,52.7,17.9z"/>
	<path class="st3" d="M49.7,18v1.3h-1.3V18H49.7z"/>
	<path class="st3" d="M42.9,18l0.5,1.3h2.4l0.5-1.3h1.3l-2.4,5.8H44L41.6,18H42.9z M44.7,22.3l0.8-1.9H44L44.7,22.3z"/>
	<path class="st3" d="M40.9,18v1.3h-1.3V18H40.9z"/>
</g>
<path class="st3" d="M63.8,56.2v9.7h-16v-9.7H63.8z M61.9,57.5h-1v7h1V57.5z M59.1,57.5h-1v7h1V57.5z M56.3,57.5h-1v7h1V57.5z
	 M53.5,57.5h-1v7h1V57.5z M50.6,57.5h-1v7h1V57.5z"/>
</svg>
