<?xml version="1.0" encoding="utf-8"?>
<!-- Generator: Adobe Illustrator 21.1.0, SVG Export Plug-In . SVG Version: 6.00 Build 0)  -->
<svg version="1.1" id="Layer_1" xmlns="http://www.w3.org/2000/svg" xmlns:xlink="http://www.w3.org/1999/xlink" x="0px" y="0px"
	 viewBox="0 0 74 84" style="enable-background:new 0 0 74 84;" xml:space="preserve">
<style type="text/css">
	.st0{fill:#4C4C4C;}
	.st1{fill:#333333;}
	.st2{fill:#262626;}
</style>
<g>
	<path class="st0" d="M0.7,73.1l3.2-22.5C4,50.1,4.5,49.7,5,49.8l66.9,9.5c0.6,0.1,0.9,0.6,0.8,1.1l-3.2,22.5
		c-0.1,0.6-0.6,0.9-1.1,0.8L1.5,74.2C1.1,74.1,0.7,73.7,0.7,73.1z"/>
	<rect x="50.8" y="68" transform="matrix(0.1404 -0.9901 0.9901 0.1404 -15.7394 123.089)" class="st1" width="24.5" height="5.3"/>
	
		<rect x="38.8" y="66.3" transform="matrix(0.1404 -0.9901 0.9901 0.1404 -24.3291 109.8082)" class="st1" width="24.5" height="5.3"/>
	<rect x="27" y="64.6" transform="matrix(0.1404 -0.9901 0.9901 0.1404 -32.8506 96.6328)" class="st1" width="24.5" height="5.3"/>
	<rect x="15" y="62.9" transform="matrix(0.1404 -0.9901 0.9901 0.1404 -41.4402 83.3519)" class="st1" width="24.5" height="5.3"/>
	
		<rect x="3.1" y="61.2" transform="matrix(0.1404 -0.9901 0.9901 0.1404 -50.0299 70.0711)" class="st1" width="24.5" height="5.3"/>
</g>
<g>
	<path class="st0" d="M3.7,34.6L0.6,12c-0.1-0.6,0.3-1.1,0.9-1.2l67.6-9.5c0.6-0.1,1.1,0.3,1.2,0.9l3.2,22.6
		c0.1,0.6-0.3,1.1-0.9,1.2L4.9,35.5C4.4,35.6,3.8,35.2,3.7,34.6z"/>
	<rect x="53" y="3.3" transform="matrix(0.9902 -0.1395 0.1395 0.9902 -1.6489 7.9202)" class="st1" width="5.3" height="24.8"/>
	<rect x="64.7" y="1.8" transform="matrix(0.9902 -0.1395 0.1395 0.9902 -1.3203 9.528)" class="st1" width="5.3" height="24.8"/>
	<rect x="41" y="5" transform="matrix(0.9902 -0.1395 0.1395 0.9902 -2.0022 6.2622)" class="st1" width="5.3" height="24.8"/>
	<rect x="28.9" y="6.7" transform="matrix(0.9902 -0.1395 0.1395 0.9902 -2.3582 4.591)" class="st1" width="5.3" height="24.8"/>
	<rect x="16.9" y="8.4" transform="matrix(0.9902 -0.1395 0.1395 0.9902 -2.7114 2.933)" class="st1" width="5.3" height="24.8"/>
	<rect x="4.8" y="10.1" transform="matrix(0.9902 -0.1395 0.1395 0.9902 -3.0675 1.2617)" class="st1" width="5.3" height="24.8"/>
</g>
<polygon class="st2" points="41.9,37.5 61,52.9 71.5,53 73.3,30.3 57.8,39.6 "/>
<path class="st2" d="M0.7,5.5l1.5,27.7l12.4-12.5l18,4.8l4-13.4L31.1,1.7L2.7,3.2C1.6,3.3,0.7,4.3,0.7,5.5z"/>
<path class="st2" d="M70.9,10.1L44.8,1.4l1.3,11.7l-8.6,11l15,5.9l17.3-5.2l3.4-10.2C73.7,12.8,72.8,10.8,70.9,10.1z"/>
<path class="st2" d="M7.2,70.2l55.6,5.9c1.9,0.2,3.6-1.1,3.8-3.1l1.6-15.6l-10.5-0.5L39,41l-17-7.7L7.8,43.8L5.2,67.9
	C5.1,69.1,6,70.2,7.2,70.2z"/>
</svg>
