<?xml version="1.0" encoding="utf-8"?>
<!-- Generator: Adobe Illustrator 21.1.0, SVG Export Plug-In . SVG Version: 6.00 Build 0)  -->
<svg version="1.1" id="Layer_1" xmlns="http://www.w3.org/2000/svg" xmlns:xlink="http://www.w3.org/1999/xlink" x="0px" y="0px"
	 viewBox="0 0 120 38" style="enable-background:new 0 0 120 38;" xml:space="preserve">
<style type="text/css">
	.st0{fill:#262626;}
	.st1{fill:#111111;}
</style>
<path class="st0" d="M70.7,3.4l-0.1-0.1L70.1,3c-2.9-1.8-6.3-2.8-9.9-2.8c-6.5,0-12.2,3.2-15.6,8.2l10.2,14.1l-8.9-8.8l-4.1,0.8
	c-0.4,1.4-0.6,2.9-0.6,4.5c0,10.5,8.4,18.8,18.8,18.8c4,0,7.6-1.2,10.7-3.4L82.4,27V11L70.7,3.4z"/>
<path class="st1" d="M68.2,15.8l-3.3-2.2l-0.2-0.1c-1-0.6-2.2-1-3.4-1c-3.6,0-6.5,2.9-6.5,6.5s2.9,6.5,6.5,6.5
	c1.3,0.1,2.6-0.4,3.6-1.1l3.3-2.1h24.2l-4.2-6.5H68.2z"/>
<polygon class="st1" points="119.3,19.2 88.8,10.8 91.1,18.2 117.5,25.5 "/>
</svg>
